<svg xmlns="http://www.w3.org/2000/svg" fill="none" viewBox="0 0 884 1279">
  \n
  <path d="m791.109 297.518-.878-.516-2.03-.619a4.833 4.833 0 0 0 2.908 1.135"/>
  \n
  <path d="m803.896 388.891-.98.275z"/>
  \n
  <path d="M791.484 297.377a1.77 1.77 0 0 1-.366-.087c-.007.081-.007.163 0 .244a.74.74 0 0 0 .366-.157"/>
  \n
  <path d="M791.113 297.529h.131v-.082z"/>
  \n
  <path d="m803.111 388.726 1.48-.843.551-.31.499-.533a8.45 8.45 0 0 0-2.53 1.686"/>
  \n
  <path d="m793.669 299.515-1.446-1.377-.98-.533c.527.93 1.398 1.616 2.426 1.91"/>
  \n
  <path d="M430.019 1186.18c-1.155.5-2.167 1.28-2.943 2.27l.912-.58c.62-.57 1.497-1.24 2.031-1.69"/>
  \n
  <path d="M641.187 1144.63c0-1.3-.636-1.06-.482 3.58 0-.37.155-.75.224-1.11.086-.83.155-1.64.258-2.47"/>
  \n
  <path d="M619.284 1186.18c-1.155.5-2.166 1.28-2.942 2.27l.912-.58c.619-.57 1.497-1.24 2.03-1.69"/>
  \n
  <path d="M281.304 1196.06c-.877-.76-1.95-1.26-3.097-1.45.929.45 1.858.9 2.477 1.24z"/>
  \n
  <path d="M247.841 1164.01c-.137-1.35-.553-2.66-1.222-3.85.474 1.23.87 2.5 1.187 3.78z"/>
  \n
  <path class="logo-coffee" fill="#fd0" d="M472.623 590.836c-45.941 19.667-98.077 41.966-165.647 41.966a313.58 313.58 0 0 1-83.623-11.528l46.733 479.806c1.654 20.05 10.79 38.75 25.593 52.38s34.191 21.19 54.313 21.19c0 0 66.262 3.44 88.373 3.44 23.796 0 95.151-3.44 95.151-3.44 20.12 0 39.503-7.57 54.303-21.2s23.933-32.32 25.587-52.37l50.053-530.204c-22.368-7.639-44.943-12.715-70.391-12.715-44.014-.017-79.477 15.142-120.445 32.675" />
  \n
  <path d="m78.6885 386.132.7914.74.5163.31a7.95 7.95 0 0 0-1.3077-1.05"/>
  \n
  <path class="logo-outline" fill="#B6B6B6" d="m879.567 341.849-7.037-35.497c-6.315-31.849-20.648-61.943-53.34-73.454-10.479-3.683-22.369-5.265-30.404-12.888-8.035-7.622-10.41-19.46-12.268-30.438-3.442-20.149-6.676-40.315-10.204-60.429-3.045-17.293-5.454-36.7187-13.386-52.583-10.324-21.3016-31.746-33.7591-53.048-42.001a305.5 305.5 0 0 0-33.363-10.3238C613.297 10.1947 557.342 5.0328 502.591 2.0905a1376.3 1376.3 0 0 0-197.169 3.2692c-48.797 4.4392-100.193 9.8077-146.564 26.6872-16.948 6.1771-34.413 13.593-47.3 26.6872-15.8132 16.088-20.9751 40.9685-9.43 61.0309 8.208 14.247 22.111 24.313 36.857 30.972a298.95 298.95 0 0 0 59.844 19.478c57.297 12.664 116.642 17.636 175.178 19.753 64.88 2.618 129.863.496 194.433-6.35 15.968-1.755 31.907-3.86 47.817-6.314 18.738-2.874 30.765-27.376 25.242-44.445-6.608-20.406-24.365-28.321-44.444-25.241-2.96.464-5.902.894-8.862 1.324l-2.133.31c-6.803.861-13.605 1.663-20.407 2.409a1083 1083 0 0 1-42.259 3.717c-31.626 2.202-63.337 3.217-95.031 3.269-31.144 0-62.305-.878-93.38-2.925-14.178-.929-28.322-2.111-42.431-3.545-6.418-.671-12.819-1.376-19.219-2.168l-6.092-.774-1.324-.189-6.315-.912c-12.905-1.945-25.81-4.181-38.577-6.883a5.798 5.798 0 0 1-4.543-5.6607 5.798 5.798 0 0 1 4.543-5.661h.241c11.064-2.3572 22.213-4.3704 33.397-6.1255 3.729-.585 7.468-1.1585 11.219-1.7206h.103c7.003-.4646 14.041-1.7207 21.009-2.5466a1336.2 1336.2 0 0 1 182.544-6.4352c29.577.8604 59.138 2.5982 88.578 5.5921 6.332.6539 12.63 1.3422 18.927 2.1164 2.409.2926 4.835.6366 7.262.9292l4.886.7054a678 678 0 0 1 42.517 7.7258c20.889 4.5425 47.714 6.0222 57.005 28.9067 2.96 7.261 4.302 15.331 5.936 22.953l2.083 9.722c.054.174.094.353.12.533 4.921 22.942 9.848 45.884 14.78 68.826.362 1.695.37 3.446.025 5.144a12.612 12.612 0 0 1-5.78 8.249 12.62 12.62 0 0 1-4.844 1.732h-.138l-3.011.413-2.976.395c-9.43 1.228-18.87 2.375-28.322 3.442a1829 1829 0 0 1-55.938 5.506c-37.109 3.085-74.292 5.11-111.55 6.074-18.984.504-37.963.74-56.936.705a1975.7 1975.7 0 0 1-225.989-13.146c-8.122-.963-16.243-1.996-24.365-3.045 6.298.809-4.577-.62-6.779-.929-5.162-.723-10.324-1.474-15.486-2.254-17.327-2.599-34.55-5.799-51.843-8.604-20.9056-3.441-40.8995-1.72-59.8094 8.604a86.995 86.995 0 0 0-36.013 37.338c-8.1559 16.862-10.582 35.221-14.2297 53.34C4 342.193-1.6781 361.688.4728 380.288c4.6285 40.143 32.6922 72.766 73.0585 80.062 37.9747 6.882 76.1557 12.457 114.4397 17.206a2114.8 2114.8 0 0 0 453.184 6.573c12.285-1.147 24.553-2.397 36.804-3.751 3.827-.42 7.699.02 11.333 1.29a25.816 25.816 0 0 1 9.67 6.049 25.806 25.806 0 0 1 6.118 9.625 25.794 25.794 0 0 1 1.373 11.323l-3.82 37.132c-7.697 75.031-15.394 150.057-23.091 225.077-8.029 78.783-16.111 157.56-24.244 236.326q-3.441 33.285-6.882 66.54c-2.203 21.84-2.512 44.36-6.659 65.94-6.539 33.93-29.509 54.77-63.027 62.39-30.708 6.99-62.078 10.66-93.569 10.94-34.912.19-69.806-1.36-104.718-1.17-37.27.21-82.918-3.23-111.687-30.97-25.277-24.36-28.77-62.51-32.211-95.5-4.588-43.67-9.136-87.331-13.645-130.989l-25.293-242.766-16.363-157.077c-.276-2.598-.551-5.162-.809-7.778-1.962-18.737-15.228-37.079-36.134-36.133-17.894.791-38.232 16.002-36.133 36.133l12.13 116.454 25.087 240.89a378681 378681 0 0 1 21.388 205.306c1.377 13.11 2.667 26.26 4.112 39.37 7.864 71.65 62.58 110.26 130.339 121.13 39.575 6.37 80.113 7.68 120.273 8.33 51.482.83 103.48 2.81 154.118-6.52 75.038-13.77 131.337-63.87 139.372-141.59 2.295-22.44 4.589-44.88 6.883-67.33 7.628-74.241 15.245-148.487 22.85-222.739l24.881-242.61 11.408-111.188a25.8 25.8 0 0 1 6.64-14.785 25.812 25.812 0 0 1 14.145-7.911c21.456-4.181 41.967-11.322 57.229-27.651 24.295-25.998 29.13-59.895 20.544-94.067M72.4301 365.835c.3269-.155-.2753 2.649-.5334 3.957-.0516-1.979.0516-3.734.5334-3.957m2.082 16.105c.1721-.121.6882.568 1.2216 1.394-.8087-.758-1.3248-1.325-1.2388-1.394zm2.0476 2.701c.7399 1.256 1.1356 2.048 0 0m4.1123 3.338h.1032c0 .121.1893.241.2581.362a2.67 2.67 0 0 0-.3785-.362zm720.124-4.99c-7.708 7.33-19.323 10.737-30.8 12.441-128.704 19.099-259.283 28.769-389.399 24.502-93.121-3.183-185.261-13.525-277.453-26.55-9.0338-1.273-18.8243-2.925-25.0358-9.584-11.7004-12.561-5.9534-37.854-2.9079-53.03 2.7875-13.903 8.1215-32.434 24.6569-34.413 25.8098-3.028 55.7828 7.863 81.3178 11.735 30.742 4.691 61.599 8.448 92.57 11.27 132.18 12.045 266.58 10.169 398.175-7.45 23.986-3.224 47.885-6.969 71.699-11.236 21.216-3.803 44.737-10.943 57.556 11.029 8.792 14.97 9.962 34.998 8.603 51.912a28.942 28.942 0 0 1-8.999 19.374z" />
  \n
</svg>
